# xmcd
#
# Track frame offsets: 
#        150
#        16548
#        35695
#        52091
#        64257
#        79032
#        90976
#        101845
#        123985
#        136113
#        154346
#        167971
#
# Disc length: 2478 seconds
#
# Revision: 0
# Processed by: cddbd v1.5.2PL0 Copyright (c) Steve Scherf et al.
# Submitted via: ExactAudioCopy v1.0b4
#
DISCID=9709ac0c
DTITLE=Shoutin' Red - Introducing: Shoutin' Red
DYEAR=2015
DGENRE=Blues
TTITLE0=Crazy blues
TTITLE1=Millman blues
TTITLE2=Geordie
TTITLE3=Labor blues
TTITLE4=I look down the road and I wonder
TTITLE5=I never cried
TTITLE6=Hesitation blues
TTITLE7=Seven dark strangers
TTITLE8=Wayward girl
TTITLE9=When the levee breaks
TTITLE10=Statesboro blues
TTITLE11=Frankie and Albert
EXTD=
EXTT0=
EXTT1=
EXTT2=
EXTT3=
EXTT4=
EXTT5=
EXTT6=
EXTT7=
EXTT8=
EXTT9=
EXTT10=
EXTT11=
PLAYORDER=
